<svg width="390" height="40" viewBox="0 0 390 40" fill="none" xmlns="http://www.w3.org/2000/svg">
<path opacity="0.35" d="M341.5 20C341.5 18.8034 342.47 17.8334 343.667 17.8334H360.333C361.53 17.8334 362.5 18.8034 362.5 20V26C362.5 27.1967 361.53 28.1667 360.333 28.1667H343.667C342.47 28.1667 341.5 27.1967 341.5 26V20Z" fill="white" stroke="white"/>
<path opacity="0.4" d="M364 21V25C364.805 24.6613 365.328 23.8732 365.328 23C365.328 22.1269 364.805 21.3388 364 21Z" fill="white"/>
<path d="M343 20.4334C343 19.8259 343.492 19.3334 344.1 19.3334H359.9C360.508 19.3334 361 19.8259 361 20.4334V25.5667C361 26.1742 360.508 26.6667 359.9 26.6667H344.1C343.492 26.6667 343 26.1742 343 25.5667V20.4334Z" fill="white"/>
<path fill-rule="evenodd" clip-rule="evenodd" d="M328.33 19.6081C330.546 19.6082 332.678 20.4597 334.283 21.9865C334.404 22.1043 334.598 22.1029 334.717 21.9831L335.873 20.8165C335.933 20.7557 335.967 20.6735 335.966 20.5879C335.966 20.5023 335.931 20.4205 335.87 20.3605C331.655 16.3209 325.005 16.3209 320.79 20.3605C320.729 20.4204 320.694 20.5023 320.694 20.5878C320.693 20.6734 320.727 20.7557 320.787 20.8165L321.943 21.9831C322.062 22.103 322.256 22.1045 322.377 21.9865C323.983 20.4596 326.114 19.6081 328.33 19.6081ZM328.33 23.4038C329.548 23.4037 330.722 23.8563 331.624 24.6735C331.747 24.7895 331.939 24.7869 332.058 24.6678L333.212 23.5011C333.273 23.4399 333.307 23.3569 333.306 23.2707C333.305 23.1844 333.27 23.1021 333.208 23.0421C330.46 20.4858 326.204 20.4858 323.455 23.0421C323.393 23.1021 323.358 23.1844 323.357 23.2707C323.356 23.357 323.39 23.44 323.451 23.5011L324.605 24.6678C324.724 24.7869 324.917 24.7895 325.039 24.6735C325.941 23.8568 327.114 23.4043 328.33 23.4038ZM330.643 25.9576C330.645 26.0441 330.611 26.1275 330.549 26.1881L328.552 28.2038C328.494 28.263 328.414 28.2964 328.33 28.2964C328.247 28.2964 328.167 28.263 328.109 28.2038L326.111 26.1881C326.049 26.1275 326.015 26.0441 326.017 25.9576C326.019 25.871 326.057 25.7891 326.121 25.7311C327.396 24.6523 329.265 24.6523 330.54 25.7311C330.604 25.7892 330.642 25.8711 330.643 25.9576Z" fill="white"/>
<path fill-rule="evenodd" clip-rule="evenodd" d="M314.667 17.6667H313.667C313.114 17.6667 312.667 18.1145 312.667 18.6667V27.3334C312.667 27.8857 313.114 28.3334 313.667 28.3334H314.667C315.219 28.3334 315.667 27.8857 315.667 27.3334V18.6667C315.667 18.1145 315.219 17.6667 314.667 17.6667ZM309 20.0001H310C310.552 20.0001 311 20.4478 311 21.0001V27.3334C311 27.8857 310.552 28.3334 310 28.3334H309C308.448 28.3334 308 27.8857 308 27.3334V21.0001C308 20.4478 308.448 20.0001 309 20.0001ZM305.333 22.3334H304.333C303.781 22.3334 303.333 22.7811 303.333 23.3334V27.3334C303.333 27.8857 303.781 28.3334 304.333 28.3334H305.333C305.886 28.3334 306.333 27.8857 306.333 27.3334V23.3334C306.333 22.7811 305.886 22.3334 305.333 22.3334ZM300.667 24.3334H299.667C299.114 24.3334 298.667 24.7811 298.667 25.3334V27.3334C298.667 27.8857 299.114 28.3334 299.667 28.3334H300.667C301.219 28.3334 301.667 27.8857 301.667 27.3334V25.3334C301.667 24.7811 301.219 24.3334 300.667 24.3334Z" fill="white"/>
<path d="M37.4341 28.2563C36.4673 28.2563 35.6445 27.9951 34.9658 27.4727C34.2871 26.9453 33.8696 26.2471 33.7134 25.3779H35.5957C35.7178 25.7783 35.9424 26.0957 36.2695 26.3301C36.6016 26.5596 36.9946 26.6743 37.4487 26.6743C38.2202 26.6743 38.8232 26.335 39.2578 25.6562C39.6924 24.9727 39.9097 24.0254 39.9097 22.8145H39.8438H39.8071H39.7852C39.5361 23.3174 39.1724 23.708 38.6938 23.9863C38.2153 24.2598 37.666 24.3965 37.0459 24.3965C36.04 24.3965 35.2075 24.0645 34.5483 23.4004C33.894 22.7363 33.5669 21.8965 33.5669 20.8809C33.5669 19.7969 33.9331 18.9082 34.6655 18.2148C35.4028 17.5166 36.3452 17.1675 37.4927 17.1675C38.2642 17.1675 38.9478 17.3457 39.5435 17.7021C40.1392 18.0586 40.6152 18.5762 40.9717 19.2549C41.4697 20.1387 41.7188 21.252 41.7188 22.5947C41.7188 24.3721 41.3403 25.7612 40.5835 26.7622C39.8267 27.7583 38.7769 28.2563 37.4341 28.2563ZM36.0059 22.3164C36.3965 22.7021 36.8945 22.895 37.5 22.895C38.1055 22.895 38.606 22.7021 39.0015 22.3164C39.397 21.9307 39.5947 21.4424 39.5947 20.8516C39.5947 20.2559 39.3945 19.7554 38.9941 19.3501C38.5938 18.9448 38.0981 18.7422 37.5073 18.7422C36.9165 18.7422 36.4209 18.9424 36.0205 19.3428C35.6201 19.7383 35.4199 20.2314 35.4199 20.8223C35.4199 21.4277 35.6152 21.9258 36.0059 22.3164ZM44.5366 26.8794C44.1948 26.8794 43.9141 26.7695 43.6943 26.5498C43.4746 26.3301 43.3647 26.0542 43.3647 25.7222C43.3647 25.3853 43.4746 25.1094 43.6943 24.8945C43.9141 24.6748 44.1948 24.5649 44.5366 24.5649C44.8833 24.5649 45.1641 24.6748 45.3789 24.8945C45.5986 25.1094 45.7085 25.3853 45.7085 25.7222C45.7085 26.0542 45.5986 26.3301 45.3789 26.5498C45.1641 26.7695 44.8833 26.8794 44.5366 26.8794ZM44.5366 21.3862C44.1948 21.3862 43.9141 21.2788 43.6943 21.064C43.4746 20.8442 43.3647 20.5684 43.3647 20.2363C43.3647 19.8994 43.4746 19.6235 43.6943 19.4087C43.9141 19.189 44.1948 19.0791 44.5366 19.0791C44.8833 19.0791 45.1641 19.189 45.3789 19.4087C45.5986 19.6235 45.7085 19.8994 45.7085 20.2363C45.7085 20.5684 45.5986 20.8442 45.3789 21.064C45.1641 21.2788 44.8833 21.3862 44.5366 21.3862ZM52.5107 28V26.0298H47.3472V24.3452C48.2065 22.7632 49.6421 20.4585 51.6538 17.4312H54.3198V24.4331H55.748V26.0298H54.3198V28H52.5107ZM49.0977 24.3672V24.4771H52.54V18.9692H52.4375C51.2949 20.6587 50.1816 22.458 49.0977 24.3672ZM59.5767 28V19.3354H59.4521L56.8228 21.1812V19.3647L59.584 17.4312H61.4663V28H59.5767Z" fill="white"/>
</svg>
